M48
; DRILL file KiCad 10.0.5-10.0.5~ubuntu26.04.1 date 2026-07-31T22:15:17
; FORMAT={-:-/ absolute / metric / decimal}
; #@! TF.CreationDate,2026-07-31T22:15:17-05:00
; #@! TF.GenerationSoftware,Kicad,Pcbnew,10.0.5-10.0.5~ubuntu26.04.1
; #@! TF.FileFunction,Plated,1,2,PTH
FMAT,2
METRIC
; #@! TA.AperFunction,Plated,PTH,ViaDrill
T1C0.300
; #@! TA.AperFunction,Plated,PTH,ComponentDrill
T2C0.800
; #@! TA.AperFunction,Plated,PTH,ComponentDrill
T3C0.900
; #@! TA.AperFunction,Plated,PTH,ComponentDrill
T4C1.000
; #@! TA.AperFunction,Plated,PTH,ComponentDrill
T5C1.100
; #@! TA.AperFunction,Plated,PTH,ComponentDrill
T6C1.200
; #@! TA.AperFunction,Plated,PTH,ComponentDrill
T7C1.600
%
G90
G05
T1
X115.7Y-148.95
T2
X61.52Y-68.16
X61.52Y-75.78
X64.3Y-113.99
X64.3Y-121.61
X90.66Y-149.415
X90.66Y-157.035
X123.093Y-64.6
X123.093Y-72.22
X134.18Y-116.4
X134.19Y-108.0
X135.93Y-122.245
X135.93Y-129.865
X138.47Y-122.245
X138.47Y-129.865
X139.6Y-99.2
X139.6Y-101.7
X141.01Y-122.245
X141.01Y-129.865
X141.8Y-116.4
X141.81Y-108.0
X142.43Y-150.83
X142.43Y-158.45
X143.55Y-122.245
X143.55Y-129.865
X145.99Y-97.15
X146.0Y-103.4
X146.09Y-122.245
X146.09Y-129.865
X148.63Y-122.245
X148.63Y-129.865
X148.685Y-110.01
X148.685Y-112.55
X148.685Y-115.09
X151.15Y-137.93
X151.15Y-145.55
X151.17Y-122.245
X151.17Y-129.865
X153.61Y-97.15
X153.62Y-103.4
X155.9Y-117.2
X155.9Y-119.7
T3
X61.52Y-80.58
X61.52Y-83.12
X90.66Y-141.49
X90.66Y-144.03
X123.093Y-76.96
X123.093Y-79.5
X142.43Y-142.73
X142.43Y-145.27
T4
X60.1Y-140.3
X62.64Y-140.3
X65.18Y-140.3
X65.22Y-158.06
X67.72Y-140.3
X67.76Y-158.06
X67.77Y-165.91
X70.26Y-140.3
X70.3Y-158.06
X70.31Y-165.91
X70.34Y-59.38
X70.38Y-80.82
X70.38Y-83.36
X72.8Y-140.3
X72.84Y-158.06
X72.85Y-165.91
X72.88Y-59.38
X72.92Y-83.36
X75.34Y-140.3
X75.39Y-165.91
X75.42Y-59.38
X75.46Y-83.36
X77.88Y-140.3
X77.93Y-165.91
X77.96Y-59.38
X77.96Y-65.6
X78.0Y-83.36
X80.42Y-140.3
X80.42Y-142.84
X80.47Y-165.91
X80.5Y-59.38
X80.5Y-65.6
X80.54Y-83.36
X83.04Y-59.38
X83.04Y-65.6
X83.08Y-83.36
X85.58Y-65.6
X85.62Y-83.36
X87.12Y-98.45
X87.12Y-123.85
X88.16Y-83.36
X89.66Y-98.45
X89.66Y-123.85
X90.7Y-83.36
X92.2Y-98.45
X92.2Y-123.85
X94.74Y-98.45
X94.74Y-123.85
X97.28Y-98.45
X97.28Y-123.85
X97.29Y-86.55
X99.82Y-98.45
X99.82Y-123.85
X99.83Y-86.55
X102.36Y-98.45
X102.36Y-123.85
X102.37Y-86.55
X104.9Y-98.45
X104.9Y-123.85
X104.91Y-86.55
X107.44Y-98.45
X107.44Y-123.85
X107.45Y-86.55
X109.98Y-98.45
X109.98Y-123.85
X109.99Y-86.55
X112.52Y-98.45
X112.52Y-123.85
X112.53Y-86.55
X113.15Y-140.3
X115.06Y-98.45
X115.06Y-123.85
X115.07Y-86.55
X115.69Y-140.3
X117.6Y-98.45
X117.6Y-123.85
X118.23Y-140.3
X118.27Y-158.06
X120.14Y-98.45
X120.14Y-123.85
X120.77Y-140.3
X120.81Y-158.06
X120.81Y-165.93
X122.68Y-98.45
X122.68Y-123.85
X123.31Y-140.3
X123.35Y-158.06
X123.35Y-165.93
X125.85Y-140.3
X125.89Y-158.06
X125.89Y-165.93
X128.39Y-140.3
X128.43Y-165.93
X130.93Y-140.3
X130.97Y-165.93
X132.64Y-59.45
X132.683Y-80.77
X132.683Y-83.31
X133.47Y-140.3
X133.47Y-142.84
X133.51Y-165.93
X135.18Y-59.45
X135.222Y-83.31
X137.72Y-59.45
X137.762Y-83.31
X140.26Y-59.45
X140.262Y-65.55
X140.302Y-83.31
X142.8Y-59.45
X142.802Y-65.55
X142.843Y-83.31
X145.34Y-59.45
X145.343Y-65.55
X145.382Y-83.31
X147.882Y-65.55
X147.922Y-83.31
X150.463Y-83.31
X153.002Y-83.31
T5
X64.3Y-104.3
X66.84Y-104.3
X69.38Y-104.3
T7
X53.0Y-104.3
X57.8Y-104.3
T6
G00X51.55Y-113.0
M15
G01X54.45Y-113.0
M16
G05
G00X53.737Y-118.471
M15
G01X53.737Y-121.371
M16
G05
M30
